<svg viewBox="0 0 609.99 264" xmlns="http://www.w3.org/2000/svg" xmlns:xlink="http://www.w3.org/1999/xlink" id="Calque_1" overflow="hidden"><defs></defs><path d="M61.23 118.9 91.8 118.9 91.8 87.34 163.76 87.34 163.76 61.14 61.23 61.14 61.23 118.9Z" fill="#FF0000"/><path d="M61.23 202.87 163.76 202.87 163.76 176.66 91.8 176.66 91.8 145.1 61.23 145.1 61.23 202.87Z" fill="#FF0000"/><rect x="91.8" y="118.9" width="65.81" height="26.2" fill="#FF0000"/><path d="M291.1 74.15C287.19 70.24 282.13 67.09 275.91 64.71 269.69 62.33 262.14 61.13 253.28 61.13L189.96 61.13 189.96 202.86 220.53 202.86 220.53 145.09 253.28 145.09C262.14 145.09 269.69 143.9 275.91 141.52 282.13 139.14 287.19 135.99 291.1 132.08 295 128.17 297.85 123.68 299.64 118.61 301.43 113.54 302.32 108.38 302.32 103.12 302.32 97.86 301.43 92.55 299.64 87.54 297.85 82.53 295.01 78.07 291.1 74.16ZM269.86 111.23C268.34 113.29 266.32 114.89 263.81 116.02 261.29 117.15 258.38 117.91 255.08 118.31 251.77 118.7 248.33 118.9 244.76 118.9L220.54 118.9 220.54 87.34 244.76 87.34C248.33 87.34 251.77 87.54 255.08 87.93 258.39 88.32 261.3 89.09 263.81 90.22 266.32 91.35 268.34 92.95 269.86 95.01 271.38 97.07 272.14 99.78 272.14 103.12 272.14 106.46 271.38 109.17 269.86 111.23Z" fill="#FF0000"/><path d="M476.99 176.66 476.99 61.14 446.43 61.14 446.43 202.87 548.95 202.87 548.95 176.66 476.99 176.66Z" fill="#FF0000"/><path d="M321.76 118.9 352.33 118.9 352.33 87.34 424.29 87.34 424.29 61.14 321.76 61.14 321.76 118.9Z" fill="#FF0000"/><rect x="321.76" y="145.1" width="30.57" height="57.76" fill="#FF0000"/><rect x="352.33" y="118.9" width="65.81" height="26.2" fill="#FF0000"/></svg>